<svg width="224" height="224" viewBox="0 0 224 224" fill="none" xmlns="http://www.w3.org/2000/svg">
<circle  cx="112" cy="112" r="112" fill="#FDFBEF"/>
<path id="Icon1-heart" fill-rule="evenodd" clip-rule="evenodd" d="M166.272 119.672C173.823 112.435 178.19 102.496 178.413 92.0397C178.637 81.5819 174.697 71.4638 167.46 63.9112C160.223 56.3586 150.282 51.9901 139.825 51.7668C129.367 51.5435 119.249 55.4837 111.696 62.7205C104.143 55.4837 94.0254 51.5435 83.5677 51.7668C73.11 51.9901 63.1693 56.3586 55.9324 63.9112C48.6956 71.4638 44.7554 81.5819 44.9787 92.0397C45.202 102.497 49.5705 112.438 57.1231 119.675L108.223 170.775C108.685 171.24 109.233 171.609 109.838 171.861C110.442 172.113 111.091 172.243 111.746 172.243C112.401 172.243 113.049 172.113 113.654 171.861C114.258 171.609 114.807 171.24 115.268 170.775L166.269 119.675L166.269 119.675C166.27 119.674 166.271 119.673 166.272 119.672Z" fill="#5BBCAE"/>
</svg>
