<svg width="224" height="224" viewBox="0 0 224 224" fill="none" xmlns="http://www.w3.org/2000/svg">
<circle cx="112" cy="112" r="112" fill="#FDFBEF"/>
<path d="M118.236 125.746V152.388C118.236 156.051 115.239 159.049 111.576 159.049C107.912 159.049 104.915 156.051 104.915 152.388V125.746C104.915 122.082 107.912 119.085 111.576 119.085C115.239 119.085 118.236 122.082 118.236 125.746Z" fill="#5BBCAE"/>
<path d="M84.9334 105.66H78.2728C59.9108 105.66 44.9697 90.719 44.9697 72.3571V65.9043C44.9697 62.2229 47.9523 59.2437 51.6303 59.2437H84.9334C88.6114 59.2437 91.594 62.2229 91.594 65.9043V98.9995C91.594 102.681 88.6114 105.66 84.9334 105.66ZM58.2909 72.5649C58.4048 83.4856 67.3227 92.3389 78.2728 92.3389V72.5649H58.2909Z" fill="#5BBCAE"/>
<path d="M84.9334 105.764H78.2728C59.9108 105.764 44.9697 90.8228 44.9697 72.4609V65.8003C44.9697 62.1189 47.9523 59.1396 51.6303 59.1396H84.9334C88.6114 59.1396 91.594 62.1189 91.594 65.8003V99.1033C91.594 102.785 88.6114 105.764 84.9334 105.764ZM58.2909 72.4609C58.2909 83.4795 67.2541 92.4427 78.2728 92.4427V72.4609H58.2909Z" fill="#5BBCAE"/>
<path d="M144.879 105.764H138.218C134.54 105.764 131.558 102.785 131.558 99.1033V65.8003C131.558 62.1189 134.54 59.1396 138.218 59.1396H171.521C175.199 59.1396 178.182 62.1189 178.182 65.8003V72.4609C178.182 90.8228 163.241 105.764 144.879 105.764ZM144.879 72.4609V92.4427C155.897 92.4427 164.861 83.4795 164.861 72.4609H144.879Z" fill="#5BBCAE"/>
<path d="M144.879 159.049V172.37C144.879 176.033 141.881 179.031 138.218 179.031H84.9333C81.27 179.031 78.2727 176.033 78.2727 172.37V159.049C78.2727 151.722 84.2673 145.728 91.5939 145.728H131.558C138.884 145.728 144.879 151.722 144.879 159.049Z" fill="#5BBCAE"/>
<path d="M144.879 52.479V99.1032C144.879 110.959 138.485 122.016 128.227 127.944C123.099 130.874 117.37 132.406 111.576 132.406C105.781 132.406 100.053 130.874 94.9242 127.944C84.6669 122.016 78.2727 110.959 78.2727 99.1032V52.479C78.2727 48.8156 81.27 45.8184 84.9333 45.8184H138.218C141.881 45.8184 144.879 48.8156 144.879 52.479Z" fill="#5BBCAE"/>
</svg>
