<svg width="40" height="40" viewBox="0 0 40 40" fill="none" xmlns="http://www.w3.org/2000/svg">
<path d="M20 40C8.956 40 0 31.044 0 20C0 8.956 8.956 0 20 0C31.044 0 40 8.956 40 20C40 31.044 31.044 40 20 40Z" fill="#F0F7FB"/>
<path d="M20 8.80766C23.644 8.80766 24.076 8.81966 25.516 8.88766C26.848 8.94766 27.572 9.17166 28.052 9.35966C28.688 9.60766 29.144 9.90366 29.62 10.3797C30.096 10.8557 30.392 11.3117 30.64 11.9477C30.828 12.4277 31.048 13.1517 31.112 14.4837C31.176 15.9237 31.192 16.3557 31.192 19.9997C31.192 23.6437 31.18 24.0757 31.112 25.5157C31.052 26.8477 30.828 27.5717 30.64 28.0517C30.392 28.6877 30.096 29.1437 29.62 29.6197C29.144 30.0957 28.688 30.3917 28.052 30.6397C27.572 30.8277 26.848 31.0477 25.516 31.1117C24.076 31.1757 23.644 31.1917 20 31.1917C16.356 31.1917 15.924 31.1797 14.484 31.1117C13.152 31.0517 12.428 30.8277 11.948 30.6397C11.312 30.3917 10.856 30.0957 10.38 29.6197C9.90399 29.1437 9.60799 28.6877 9.35999 28.0517C9.17199 27.5717 8.95199 26.8477 8.88799 25.5157C8.82399 24.0757 8.80799 23.6437 8.80799 19.9997C8.80799 16.3557 8.81999 15.9237 8.88799 14.4837C8.94799 13.1517 9.17199 12.4277 9.35999 11.9477C9.60799 11.3117 9.90399 10.8557 10.38 10.3797C10.856 9.90366 11.312 9.60766 11.948 9.35966C12.428 9.17166 13.152 8.95166 14.484 8.88766C15.924 8.81966 16.356 8.80766 20 8.80766ZM20 6.34766C16.292 6.34766 15.828 6.36366 14.372 6.43166C12.92 6.49966 11.928 6.72766 11.056 7.06766C10.16 7.41166 9.39599 7.87966 8.63999 8.63966C7.87999 9.39966 7.41599 10.1597 7.06399 11.0597C6.72799 11.9277 6.49599 12.9197 6.42799 14.3757C6.35999 15.8317 6.34399 16.2957 6.34399 20.0037C6.34399 23.7117 6.35999 24.1757 6.42799 25.6317C6.49599 27.0837 6.72399 28.0757 7.06399 28.9477C7.41199 29.8397 7.87999 30.6037 8.63999 31.3597C9.39999 32.1197 10.16 32.5837 11.06 32.9357C11.928 33.2717 12.92 33.5037 14.376 33.5717C15.832 33.6397 16.296 33.6557 20.004 33.6557C23.712 33.6557 24.176 33.6397 25.632 33.5717C27.084 33.5037 28.076 33.2757 28.948 32.9357C29.84 32.5877 30.604 32.1197 31.36 31.3597C32.12 30.5997 32.584 29.8397 32.936 28.9397C33.272 28.0717 33.504 27.0797 33.572 25.6237C33.64 24.1677 33.656 23.7037 33.656 19.9957C33.656 16.2877 33.64 15.8237 33.572 14.3677C33.504 12.9157 33.276 11.9237 32.936 11.0517C32.588 10.1597 32.12 9.39566 31.36 8.63966C30.6 7.87966 29.84 7.41566 28.94 7.06366C28.072 6.72766 27.08 6.49566 25.624 6.42766C24.172 6.36366 23.708 6.34766 20 6.34766Z" fill="#375B82"/>
<path d="M20 12.9873C16.128 12.9873 12.988 16.1273 12.988 19.9993C12.988 23.8713 16.128 27.0113 20 27.0113C23.872 27.0113 27.012 23.8713 27.012 19.9993C27.012 16.1273 23.872 12.9873 20 12.9873ZM20 24.5513C17.488 24.5513 15.448 22.5153 15.448 19.9993C15.448 17.4833 17.488 15.4473 20 15.4473C22.512 15.4473 24.552 17.4833 24.552 19.9993C24.552 22.5153 22.512 24.5513 20 24.5513Z" fill="#375B82"/>
<path d="M27.2879 14.3523C28.1937 14.3523 28.9279 13.618 28.9279 12.7123C28.9279 11.8065 28.1937 11.0723 27.2879 11.0723C26.3822 11.0723 25.6479 11.8065 25.6479 12.7123C25.6479 13.618 26.3822 14.3523 27.2879 14.3523Z" fill="#375B82"/>
</svg>
