<svg width="222" height="222" viewBox="0 0 222 222" fill="none" xmlns="http://www.w3.org/2000/svg">
<circle cx="111" cy="111" r="111" fill="#FDFBEF"/>
<path d="M111.421 45.4092C111.389 45.4092 111.389 45.4092 111.357 45.4092C111.357 45.4092 111.357 45.4092 111.325 45.4092C111.294 45.4092 111.262 45.4092 111.262 45.4092C74.8604 45.5044 45.4092 75.0191 45.4092 111.421C45.4092 147.822 74.8604 177.337 111.262 177.432C111.294 177.432 111.325 177.432 111.325 177.432H111.357C111.389 177.432 111.389 177.432 111.421 177.432C147.885 177.432 177.432 147.885 177.432 111.421C177.432 74.9556 147.885 45.4092 111.421 45.4092ZM111.421 172.164C111.389 172.164 111.389 172.164 111.357 172.164C111.357 172.164 111.357 172.164 111.325 172.164C111.294 172.164 111.262 172.164 111.262 172.164C77.8119 172.068 50.6774 144.902 50.6774 111.421C50.6774 77.9388 77.7801 50.7726 111.262 50.7091C111.294 50.7091 111.294 50.7091 111.325 50.7091H111.357C111.389 50.7091 111.389 50.7091 111.421 50.7091C144.966 50.7091 172.164 77.9071 172.164 111.452C172.164 144.966 144.966 172.164 111.421 172.164Z" fill="#5BBCAE"/>
<path d="M132.461 84.6982C126.527 86.1264 120.402 86.9833 114.086 87.1737V108.786H135.54C135.349 99.8682 134.239 91.7754 132.461 84.6982Z" fill="#5BBCAE"/>
<path d="M114.055 56.3584V82.3504C119.926 82.16 125.638 81.3983 131.129 80.0654C126.971 66.9266 120.497 58.2943 114.055 56.3584Z" fill="#5BBCAE"/>
<path d="M91.5537 80.0336C97.1076 81.3665 102.852 82.1599 108.755 82.3504V56.2949C102.312 58.1674 95.7429 66.7996 91.5537 80.0336Z" fill="#5BBCAE"/>
<path d="M150.964 72.5117C143.792 65.2124 134.62 59.8807 124.337 57.437C129.034 62.2927 132.97 69.7189 135.794 78.7955C141.094 77.1769 146.172 75.0824 150.964 72.5117Z" fill="#5BBCAE"/>
<path d="M140.396 108.786H166.832C166.261 96.4723 161.659 85.1742 154.296 76.2246C148.869 79.2078 143.125 81.6515 137.127 83.4605C139.063 91.0772 140.205 99.6777 140.396 108.786Z" fill="#5BBCAE"/>
<path d="M87.1421 108.787H108.786V87.1742C102.407 86.9837 96.2187 86.1269 90.2522 84.667C88.4433 91.7442 87.3325 99.8686 87.1421 108.787Z" fill="#5BBCAE"/>
<path d="M135.54 114.055H114.055V135.635C120.37 135.826 126.527 136.651 132.462 138.111C134.239 131.065 135.35 122.941 135.54 114.055Z" fill="#5BBCAE"/>
<path d="M90.2522 138.142C96.2187 136.683 102.407 135.826 108.786 135.635V114.055H87.1421C87.3325 122.973 88.4433 131.097 90.2522 138.142Z" fill="#5BBCAE"/>
<path d="M108.786 166.514V140.459C102.884 140.649 97.1076 141.443 91.5537 142.776C95.7429 156.01 102.312 164.674 108.786 166.514Z" fill="#5BBCAE"/>
<path d="M124.337 165.404C134.62 162.928 143.792 157.629 150.996 150.297C146.204 147.727 141.126 145.632 135.826 144.014C133.001 153.122 129.034 160.517 124.337 165.404Z" fill="#5BBCAE"/>
<path d="M98.3135 57.501C88.1262 59.9764 79.0178 65.2764 71.8772 72.544C76.6376 75.0829 81.652 77.1774 86.8884 78.7643C89.713 69.7194 93.6483 62.3566 98.3135 57.501Z" fill="#5BBCAE"/>
<path d="M137.127 139.38C143.157 141.189 148.901 143.633 154.328 146.616C161.691 137.666 166.292 126.368 166.864 114.055H140.427C140.205 123.163 139.063 131.732 137.127 139.38Z" fill="#5BBCAE"/>
<path d="M114.055 140.459V166.483C120.497 164.547 126.971 155.915 131.129 142.744C125.638 141.411 119.926 140.649 114.055 140.459Z" fill="#5BBCAE"/>
<path d="M85.587 83.4287C79.6205 81.6198 73.908 79.2078 68.5446 76.2246C61.1818 85.1742 56.58 96.4723 56.0088 108.786H82.3181C82.4768 99.6459 83.651 91.0454 85.587 83.4287Z" fill="#5BBCAE"/>
<path d="M82.2864 114.055H55.9771C56.5483 126.368 61.1501 137.666 68.5129 146.616C73.8763 143.665 79.5888 141.221 85.5552 139.412C83.651 131.795 82.4768 123.195 82.2864 114.055Z" fill="#5BBCAE"/>
<path d="M71.8457 150.297C78.9864 157.565 88.0947 162.865 98.3137 165.34C93.6485 160.485 89.7132 153.09 86.8887 144.045C81.6522 145.664 76.6061 147.759 71.8457 150.297Z" fill="#5BBCAE"/>
</svg>
