<svg width="40" height="40" viewBox="0 0 40 40" fill="none" xmlns="http://www.w3.org/2000/svg">
<path d="M19.9512 0H19.9408C8.94313 0 0 8.9698 0 20C0 24.3751 1.40598 28.4304 3.79704 31.7227L1.3116 39.152L8.97858 36.6948C12.1322 38.79 15.8945 40 19.9512 40C30.9489 40 39.892 31.0274 39.892 20C39.892 8.97247 30.9488 0 19.9512 0Z" fill="#F0F7FB"/>
<path d="M31.5569 28.2418C31.0756 29.6048 29.1657 30.7344 27.6426 31.0649C26.6 31.287 25.239 31.4649 20.6568 29.5597C14.7947 27.1248 11.02 21.1522 10.7262 20.7647C10.444 20.3771 8.35742 17.6026 8.35742 14.7321C8.35742 11.8622 9.8108 10.4644 10.397 9.86495C10.8777 9.372 11.6732 9.14746 12.4362 9.14746C12.6831 9.14746 12.9048 9.15967 13.1047 9.16978C13.6905 9.19503 13.9844 9.22972 14.3712 10.1573C14.8524 11.32 16.0239 14.1898 16.1639 14.4851C16.3061 14.7802 16.4478 15.1798 16.2485 15.5672C16.0613 15.9675 15.897 16.1448 15.6027 16.4847C15.3084 16.8251 15.0289 17.085 14.7349 17.4497C14.4659 17.7672 14.1616 18.1073 14.5008 18.6949C14.8398 19.2699 16.0114 21.187 17.7365 22.7271C19.9635 24.7146 21.7682 25.3496 22.4142 25.6198C22.8954 25.82 23.4688 25.7721 23.8199 25.3972C24.2663 24.9145 24.8179 24.1147 25.3786 23.3275C25.7774 22.7624 26.281 22.6922 26.8096 22.8921C27.3481 23.0797 30.1978 24.4924 30.7838 24.7848C31.3695 25.0798 31.7564 25.2197 31.8985 25.4673C32.0381 25.7143 32.0381 26.8772 31.5569 28.2418Z" fill="#375B82"/>
</svg>
