<svg width="40" height="40" viewBox="0 0 40 40" fill="none" xmlns="http://www.w3.org/2000/svg">
<path fill-rule="evenodd" clip-rule="evenodd" d="M20 40C31.0457 40 40 31.0457 40 20C40 8.95431 31.0457 0 20 0C8.95431 0 0 8.95431 0 20C0 31.0457 8.95431 40 20 40Z" fill="#F0F7FB"/>
<path fill-rule="evenodd" clip-rule="evenodd" d="M20.0001 22.3076L31.5385 12.3076H8.46161L20.0001 22.3076ZM16.8835 21.2006L20.0001 23.7588L23.0678 21.2006L31.5385 28.4615H8.46161L16.8835 21.2006ZM7.69238 27.6922V13.0768L16.1539 20.3845L7.69238 27.6922ZM32.3078 27.6922V13.0768L23.8462 20.3845L32.3078 27.6922Z" fill="#3D6187"/>
</svg>
