<svg width="48" height="48" viewBox="0 0 48 48" fill="none" xmlns="http://www.w3.org/2000/svg">
<path d="M24 48C37.2548 48 48 37.2548 48 24C48 10.7452 37.2548 0 24 0C10.7452 0 0 10.7452 0 24C0 37.2548 10.7452 48 24 48Z" fill="#F0F7FB"/>
<path d="M24 14.25C20.7 14.25 18 16.95 18 20.25C18 23.55 20.7 26.25 24 26.25C27.3 26.25 30 23.55 30 20.25C30 16.95 27.3 14.25 24 14.25Z" fill="#375B82"/>
<path d="M24 9C17.775 9 12.75 14.025 12.75 20.25C12.75 25.875 21.975 36.675 23.7375 38.6625C23.8875 38.85 24.15 38.85 24.3 38.6625C26.025 36.675 35.25 25.875 35.25 20.25C35.25 14.025 30.225 9 24 9ZM24 27.75C19.875 27.75 16.5 24.375 16.5 20.25C16.5 16.125 19.875 12.75 24 12.75C28.125 12.75 31.5 16.125 31.5 20.25C31.5 24.375 28.125 27.75 24 27.75Z" fill="#375B82"/>
</svg>
