<svg width="168" height="169" viewBox="0 0 168 169" fill="none" xmlns="http://www.w3.org/2000/svg">
<path fill-rule="evenodd" clip-rule="evenodd" d="M0 84.0005C0 37.6087 37.6084 0 84.0002 0C130.392 0 168 37.6087 168 84.0005C168 130.392 130.392 168 84.0002 168C37.6084 168 0 130.392 0 84.0005Z" fill="#5BBCAE"/>
<path d="M84.1355 83.4347C80.316 79.6152 80.316 73.4215 84.1355 69.602L96.5964 57.1404C95.5304 57.0702 94.4688 56.9453 93.415 56.7572L49.7326 100.44C47.2842 102.888 43.7991 103.373 41.9487 101.521C40.0956 99.6692 40.5813 96.1848 43.0287 93.7364L71.2073 65.5578C71.8671 64.7071 71.5828 63.8749 71.0446 63.4659C70.4821 63.0391 69.825 63.0662 69.2448 63.6465L36.5632 96.327C34.1148 98.7763 30.6294 99.2597 28.7782 97.4084C26.926 95.5572 27.41 92.0718 29.8574 89.6235L62.5445 56.9371C62.9853 56.5056 63.2071 55.6625 62.7401 55.0579C62.2993 54.4879 61.3586 53.9536 60.4807 54.8305L32.3021 83.0091C29.8528 85.4575 26.3683 85.9411 24.5161 84.0898C22.6648 82.2376 23.1488 78.7525 25.5971 76.3041L57.1023 44.8476C57.9596 43.9922 59.3054 43.2258 58.7438 41.8387C58.5491 41.3567 57.4691 40.4628 56.3086 41.4315L35.3084 62.4312C33.4572 64.2844 30.4545 64.2832 28.6042 62.432C26.7538 60.5817 26.752 57.5782 28.6042 55.727C28.6042 55.727 68.9464 15.3847 70.135 14.1961C74.6256 9.70556 76.6741 4.67339 77.6465 0.269874C77.6503 0.251155 77.6483 0.236853 77.6736 0.234045C87.1339 -0.524988 101.28 0.649917 109.912 4.07352C109.91 4.13717 109.906 4.19946 109.903 4.26217C109.259 17.162 110.321 22.4209 111.596 29.0575C113.958 41.3415 112.246 55.795 104.365 63.6765C103.546 64.4963 84.1355 83.4347 84.1355 83.4347V83.4347Z" fill="#F0F7FB"/>
<path d="M84.042 84.5322C87.8634 88.3517 87.8624 94.5451 84.042 98.3656L72.8054 109.602L71.3866 110.968C71.7357 111.362 72.3711 111.752 72.9561 111.744C75.0637 111.723 75.4117 110.564 75.6073 110.364L118.445 67.5262C120.893 65.0778 124.379 64.5952 126.23 66.4455C128.082 68.2986 127.597 71.7819 125.149 74.2312L96.4963 102.885C96.2595 103.122 95.988 103.854 96.572 104.659C97.1195 105.414 98.1061 105.117 98.532 104.723L131.615 71.6399C134.063 69.1915 137.549 68.7072 139.4 70.5584C141.25 72.4088 140.767 75.8952 138.32 78.3427L104.939 111.722C104.363 112.359 104.64 113.298 104.917 113.589C105.271 113.962 106.242 114.494 106.983 113.862L135.876 84.9585C138.325 82.5092 141.81 82.0265 143.661 83.8778C145.513 85.729 145.029 89.2146 142.58 91.662L111.459 122.783C110.437 123.806 108.826 124.717 109.224 126.337C109.315 126.707 110.415 127.819 111.693 126.709L132.87 105.535C134.721 103.684 137.723 103.684 139.574 105.535C141.424 107.386 141.426 110.389 139.575 112.24C139.575 112.24 99.2331 152.583 98.0435 153.771C93.5324 158.283 91.4226 163.329 90.5185 167.76C90.4268 168.207 84.8505 167.994 83.3137 168C75.6317 168.032 70.0985 168.162 56.4125 163.365C57.7322 156.386 57.3185 143.194 56.0915 136.637C53.9099 124.988 56.4174 111.686 63.814 104.29C64.4102 103.693 74.867 93.4859 80.5059 87.9827C82.609 85.9293 84.042 84.5322 84.042 84.5322V84.5322Z" fill="#375B82"/>
</svg>
