<svg width="169" height="25" viewBox="0 0 169 25" fill="none" xmlns="http://www.w3.org/2000/svg">
<path d="M13.5417 20.0617L5.14965 25L7.3748 15.7407L0 9.50617L9.72711 8.7037L13.5417 0L17.3562 8.7037L27.0833 9.50617L19.7085 15.7407L21.9337 25L13.5417 20.0617Z" fill="#FFD600"/>
<path d="M48.9582 20.0617L40.5662 25L42.7913 15.7407L35.4165 9.50617L45.1436 8.7037L48.9582 0L52.7727 8.7037L62.4998 9.50617L55.125 15.7407L57.3502 25L48.9582 20.0617Z" fill="#FFD600"/>
<path d="M84.3752 20.0617L75.9831 25L78.2083 15.7407L70.8335 9.50617L80.5606 8.7037L84.3752 0L88.1897 8.7037L97.9168 9.50617L90.542 15.7407L92.7672 25L84.3752 20.0617Z" fill="#FFD600"/>
<path d="M119.792 20.0617L111.4 25L113.625 15.7407L106.25 9.50617L115.977 8.7037L119.792 0L123.606 8.7037L133.333 9.50617L125.959 15.7407L128.184 25L119.792 20.0617Z" fill="#FFD600"/>
<path d="M155.208 20.0617L146.816 25L149.041 15.7407L141.667 9.50617L151.394 8.7037L155.208 0L159.023 8.7037L168.75 9.50617L161.375 15.7407L163.6 25L155.208 20.0617Z" fill="#FFD600"/>
</svg>
